<svg xmlns="http://www.w3.org/2000/svg" width="33" height="33" fill="none"><path fill="#62CF96" d="M15.81 13c0-.368.309-.667.69-.667.381 0 .69.299.69.667v6c0 .368-.309.667-.69.667a.679.679 0 0 1-.69-.667v-6ZM21.333 13c0-.368.31-.667.69-.667.382 0 .691.299.691.667v6c0 .368-.309.667-.69.667a.679.679 0 0 1-.69-.667v-6ZM29.619 13c0-.368.31-.667.69-.667.382 0 .691.299.691.667v6c0 .368-.31.667-.69.667a.679.679 0 0 1-.691-.667v-6ZM24.095 8.667c0-.369.31-.667.69-.667.382 0 .691.298.691.667v14.666c0 .369-.309.667-.69.667a.679.679 0 0 1-.69-.667V8.667ZM18.571 11.333c0-.368.31-.666.69-.666.382 0 .691.298.691.666v9.334c0 .368-.309.666-.69.666a.679.679 0 0 1-.69-.666v-9.334ZM26.857 11.333c0-.368.31-.666.69-.666.382 0 .691.298.691.666v9.334c0 .368-.309.666-.69.666a.679.679 0 0 1-.69-.666v-9.334ZM2 13c0-.368.31-.667.69-.667.382 0 .691.299.691.667v6c0 .368-.31.667-.69.667A.679.679 0 0 1 2 19v-6ZM7.524 13c0-.368.309-.667.69-.667.382 0 .69.299.69.667v6c0 .368-.308.667-.69.667a.679.679 0 0 1-.69-.667v-6Z"/><path fill="#62CF96" d="M15.81 13c0-.368.309-.667.69-.667.381 0 .69.299.69.667v6c0 .368-.309.667-.69.667a.679.679 0 0 1-.69-.667v-6ZM10.286 8.667c0-.369.309-.667.69-.667.381 0 .69.298.69.667v14.666c0 .369-.309.667-.69.667a.679.679 0 0 1-.69-.667V8.667ZM4.762 11.333c0-.368.309-.666.69-.666.382 0 .69.298.69.666v9.334c0 .368-.308.666-.69.666a.679.679 0 0 1-.69-.666v-9.334ZM13.048 11.333c0-.368.309-.666.69-.666.381 0 .69.298.69.666v9.334c0 .368-.309.666-.69.666a.679.679 0 0 1-.69-.666v-9.334Z"/></svg>
