<svg xmlns="http://www.w3.org/2000/svg" width="150" height="150" fill="none">
  <path fill="#62CF96" d="M72.571 40.875a2.923 2.923 0 0 1 2.929-2.917 2.923 2.923 0 0 1 2.929 2.917v26.25a2.923 2.923 0 0 1-2.929 2.917 2.923 2.923 0 0 1-2.929-2.917v-26.25Zm23.429 0a2.923 2.923 0 0 1 2.928-2.917 2.923 2.923 0 0 1 2.929 2.917v26.25a2.923 2.923 0 0 1-2.928 2.917A2.923 2.923 0 0 1 96 67.125v-26.25Zm35.143 0a2.922 2.922 0 0 1 2.928-2.917A2.923 2.923 0 0 1 137 40.875v26.25a2.923 2.923 0 0 1-2.929 2.917 2.922 2.922 0 0 1-2.928-2.917v-26.25Zm-23.429-18.958A2.923 2.923 0 0 1 110.643 19a2.922 2.922 0 0 1 2.928 2.917v64.166A2.922 2.922 0 0 1 110.643 89a2.923 2.923 0 0 1-2.929-2.917V21.917ZM84.286 33.583a2.923 2.923 0 0 1 2.928-2.916 2.923 2.923 0 0 1 2.929 2.916v40.834a2.923 2.923 0 0 1-2.929 2.916 2.923 2.923 0 0 1-2.928-2.916V33.583Zm35.143 0a2.922 2.922 0 0 1 2.928-2.916 2.923 2.923 0 0 1 2.929 2.916v40.834a2.923 2.923 0 0 1-2.929 2.916 2.922 2.922 0 0 1-2.928-2.916V33.583ZM14 40.875a2.923 2.923 0 0 1 2.929-2.917 2.923 2.923 0 0 1 2.928 2.917v26.25a2.923 2.923 0 0 1-2.928 2.917A2.923 2.923 0 0 1 14 67.125v-26.25Zm23.429 0a2.923 2.923 0 0 1 2.928-2.917 2.923 2.923 0 0 1 2.929 2.917v26.25a2.923 2.923 0 0 1-2.929 2.917 2.923 2.923 0 0 1-2.928-2.917v-26.25Z"/>
  <path fill="#62CF96" d="M72.571 40.875a2.923 2.923 0 0 1 2.929-2.917 2.923 2.923 0 0 1 2.929 2.917v26.25a2.923 2.923 0 0 1-2.929 2.917 2.923 2.923 0 0 1-2.929-2.917v-26.25ZM49.143 21.917A2.923 2.923 0 0 1 52.07 19 2.923 2.923 0 0 1 55 21.917v64.166A2.923 2.923 0 0 1 52.071 89a2.923 2.923 0 0 1-2.928-2.917V21.917ZM25.714 33.583a2.923 2.923 0 0 1 2.929-2.916 2.923 2.923 0 0 1 2.928 2.916v40.834a2.923 2.923 0 0 1-2.928 2.916 2.923 2.923 0 0 1-2.929-2.916V33.583Zm35.143 0a2.923 2.923 0 0 1 2.929-2.916 2.923 2.923 0 0 1 2.928 2.916v40.834a2.923 2.923 0 0 1-2.928 2.916 2.923 2.923 0 0 1-2.929-2.916V33.583Z"/>
  <path fill="#FFF" d="M123.352 132.893a5.635 5.635 0 0 1-.771.144c-.337.049-.69.073-1.06.073-.353 0-.674-.024-.963-.073a1.614 1.614 0 0 1-.698-.288 1.511 1.511 0 0 1-.458-.578c-.096-.257-.144-.586-.144-.988v-7.224c0-.369.064-.682.193-.939.144-.273.345-.514.602-.722.256-.209.569-.394.939-.554a9.23 9.23 0 0 1 2.576-.747c.466-.08.931-.12 1.397-.12.771 0 1.381.152 1.83.457.45.289.674.771.674 1.445 0 .225-.032.45-.096.675a3.053 3.053 0 0 1-.241.577 11.472 11.472 0 0 0-2.071.193c-.337.064-.658.137-.963.217a3.634 3.634 0 0 0-.746.241v8.211Zm-11.122.409c-.947 0-1.83-.128-2.648-.385a6.27 6.27 0 0 1-2.119-1.204c-.594-.53-1.068-1.196-1.421-1.999-.337-.802-.506-1.741-.506-2.817 0-1.06.169-1.967.506-2.721.353-.771.811-1.397 1.372-1.878a5.202 5.202 0 0 1 1.927-1.084 6.954 6.954 0 0 1 2.215-.361c.851 0 1.622.128 2.312.385.706.257 1.308.61 1.806 1.06.514.449.907.987 1.18 1.613.289.626.433 1.308.433 2.047 0 .546-.152.963-.457 1.252-.305.289-.731.474-1.276.554l-5.948.891c.176.53.538.931 1.083 1.204.546.257 1.172.385 1.879.385.658 0 1.276-.08 1.854-.241.594-.176 1.075-.377 1.445-.602.256.161.473.386.65.675.176.289.265.594.265.915 0 .722-.337 1.26-1.012 1.613a5.34 5.34 0 0 1-1.734.554c-.642.096-1.244.144-1.806.144Zm-.674-9.463c-.385 0-.722.064-1.011.192a1.959 1.959 0 0 0-.674.506 2.07 2.07 0 0 0-.41.674c-.08.241-.128.49-.144.747l4.117-.674c-.048-.321-.224-.643-.529-.964-.305-.321-.755-.481-1.349-.481Zm-10.874 9.054c-.16.048-.417.096-.77.144-.338.049-.69.073-1.06.073a5.79 5.79 0 0 1-.963-.073 1.614 1.614 0 0 1-.698-.288 1.508 1.508 0 0 1-.458-.578c-.096-.257-.145-.586-.145-.988v-7.224c0-.369.065-.682.193-.939a2.33 2.33 0 0 1 .602-.722 4 4 0 0 1 .94-.554 9.273 9.273 0 0 1 2.576-.747c.465-.08.931-.12 1.397-.12.77 0 1.38.152 1.83.457.449.289.674.771.674 1.445 0 .225-.032.45-.096.675a3.19 3.19 0 0 1-.241.577 11.493 11.493 0 0 0-2.071.193c-.337.064-.658.137-.963.217a3.665 3.665 0 0 0-.747.241v8.211Zm-11.121.409a8.8 8.8 0 0 1-2.649-.385 6.272 6.272 0 0 1-2.119-1.204c-.594-.53-1.067-1.196-1.42-1.999-.338-.802-.506-1.741-.506-2.817 0-1.06.168-1.967.505-2.721.354-.771.811-1.397 1.373-1.878a5.203 5.203 0 0 1 1.926-1.084 6.956 6.956 0 0 1 2.216-.361c.85 0 1.621.128 2.312.385.706.257 1.308.61 1.806 1.06a4.52 4.52 0 0 1 1.18 1.613c.288.626.433 1.308.433 2.047 0 .546-.152.963-.457 1.252-.305.289-.731.474-1.277.554l-5.948.891c.177.53.538.931 1.084 1.204.546.257 1.172.385 1.878.385.659 0 1.276-.08 1.854-.241.594-.176 1.076-.377 1.445-.602.257.161.474.386.65.675.177.289.265.594.265.915 0 .722-.337 1.26-1.011 1.613a5.352 5.352 0 0 1-1.734.554c-.642.096-1.244.144-1.806.144Zm-.674-9.463c-.385 0-.722.064-1.011.192a1.966 1.966 0 0 0-.675.506 2.064 2.064 0 0 0-.41.674c-.08.241-.127.49-.144.747l4.118-.674c-.048-.321-.225-.643-.53-.964-.305-.321-.754-.481-1.348-.481Zm-20.13 3.227c0-1.06.16-1.975.482-2.746.321-.786.762-1.436 1.324-1.95a5.48 5.48 0 0 1 1.999-1.132 7.79 7.79 0 0 1 2.48-.385c.321 0 .634.032.94.096.304.048.553.113.746.193v-3.901a5.57 5.57 0 0 1 .77-.145 6.066 6.066 0 0 1 1.084-.096c.353 0 .666.024.94.072.288.048.529.145.722.289.192.145.337.345.433.602.096.241.144.562.144.963v11.414c0 .755-.353 1.357-1.059 1.806-.466.306-1.068.57-1.806.795-.739.241-1.59.361-2.553.361-1.043 0-1.982-.144-2.817-.433-.819-.289-1.517-.706-2.095-1.252a5.621 5.621 0 0 1-1.3-1.951c-.29-.77-.434-1.637-.434-2.6Zm6.84-3.01c-.868 0-1.534.248-2 .746-.465.498-.698 1.252-.698 2.264 0 .995.217 1.749.65 2.263.434.498 1.06.747 1.878.747.29 0 .546-.041.771-.121.24-.096.426-.2.554-.313v-5.298c-.321-.192-.706-.288-1.156-.288ZM62.64 125.5c0-.497-.144-.859-.433-1.083-.273-.241-.65-.361-1.131-.361-.322 0-.642.04-.964.12-.305.08-.57.201-.794.361v8.356c-.16.048-.418.096-.77.144a7.383 7.383 0 0 1-1.06.073 5.8 5.8 0 0 1-.964-.073 1.614 1.614 0 0 1-.698-.288 1.508 1.508 0 0 1-.457-.578c-.097-.257-.145-.586-.145-.988v-7.224c0-.433.088-.786.265-1.059a3.14 3.14 0 0 1 .77-.747c.546-.385 1.229-.698 2.047-.939.835-.241 1.758-.361 2.77-.361 1.814 0 3.21.401 4.19 1.204.979.786 1.468 1.886 1.468 3.299v7.537c-.16.048-.417.096-.77.144-.337.049-.69.073-1.06.073a5.79 5.79 0 0 1-.963-.073 1.614 1.614 0 0 1-.698-.288 1.508 1.508 0 0 1-.458-.578c-.096-.257-.144-.586-.144-.988V125.5Zm-14.443 7.802a8.8 8.8 0 0 1-2.65-.385 6.274 6.274 0 0 1-2.118-1.204c-.594-.53-1.068-1.196-1.42-1.999-.338-.802-.507-1.741-.507-2.817 0-1.06.169-1.967.506-2.721.353-.771.81-1.397 1.373-1.878a5.202 5.202 0 0 1 1.926-1.084 6.956 6.956 0 0 1 2.215-.361c.851 0 1.622.128 2.312.385a5.42 5.42 0 0 1 1.806 1.06 4.51 4.51 0 0 1 1.18 1.613c.29.626.434 1.308.434 2.047 0 .546-.153.963-.458 1.252-.305.289-.73.474-1.276.554l-5.948.891c.177.53.538.931 1.084 1.204.545.257 1.172.385 1.878.385.658 0 1.276-.08 1.854-.241.594-.176 1.076-.377 1.445-.602.257.161.473.386.65.675.177.289.265.594.265.915 0 .722-.337 1.26-1.011 1.613a5.351 5.351 0 0 1-1.734.554 12.25 12.25 0 0 1-1.806.144Zm-.675-9.463a2.47 2.47 0 0 0-1.01.192 1.965 1.965 0 0 0-.675.506 2.064 2.064 0 0 0-.41.674c-.08.241-.128.49-.144.747l4.118-.674c-.048-.321-.225-.643-.53-.964-.305-.321-.755-.481-1.349-.481Zm-15.332 4.358v4.624a6.718 6.718 0 0 1-.843.144c-.37.048-.738.072-1.108.072-.369 0-.698-.032-.987-.096a1.603 1.603 0 0 1-.698-.289 1.381 1.381 0 0 1-.41-.602c-.096-.257-.144-.594-.144-1.011v-11.342c0-.337.088-.594.265-.771a2.01 2.01 0 0 1 .77-.457 8.55 8.55 0 0 1 1.903-.409 17.394 17.394 0 0 1 2.311-.145c2.216 0 3.886.466 5.01 1.397 1.123.931 1.685 2.191 1.685 3.78 0 .996-.257 1.846-.77 2.553-.514.706-1.124 1.252-1.83 1.637a56.973 56.973 0 0 0 1.709 2.216c.562.69 1.003 1.316 1.324 1.878-.16.562-.457.995-.89 1.3a2.437 2.437 0 0 1-1.421.434 3.06 3.06 0 0 1-.916-.121 2.194 2.194 0 0 1-.674-.337 2.735 2.735 0 0 1-.53-.53 6.948 6.948 0 0 1-.457-.674l-2.023-3.251H32.19Zm1.517-3.202c.61 0 1.092-.153 1.445-.458.353-.321.53-.786.53-1.397 0-.61-.201-1.067-.602-1.372-.386-.321-1.004-.482-1.855-.482-.24 0-.433.008-.578.024a7.167 7.167 0 0 0-.481.073v3.612h1.541Zm84.959-23.709c.658 0 1.3.097 1.926.289.643.177 1.196.45 1.662.819a7.212 7.212 0 0 1 1.613-.795c.61-.208 1.341-.313 2.192-.313.61 0 1.204.081 1.782.241a4.328 4.328 0 0 1 1.565.771c.465.337.835.794 1.107 1.372.273.562.41 1.252.41 2.071v7.585a5.45 5.45 0 0 1-.771.145c-.337.048-.69.072-1.059.072-.353 0-.674-.024-.963-.072a1.619 1.619 0 0 1-.699-.289 1.502 1.502 0 0 1-.457-.578c-.097-.257-.145-.586-.145-.987v-5.755c0-.482-.136-.827-.409-1.036-.273-.225-.642-.337-1.108-.337-.225 0-.465.056-.722.169-.257.096-.45.2-.578.313a.789.789 0 0 1 .024.192v8.163a6.52 6.52 0 0 1-.795.145 7.332 7.332 0 0 1-1.035.072c-.353 0-.674-.024-.963-.072a1.619 1.619 0 0 1-.699-.289 1.502 1.502 0 0 1-.457-.578c-.097-.257-.145-.586-.145-.987v-5.755c0-.482-.152-.827-.457-1.036-.289-.225-.642-.337-1.06-.337a1.77 1.77 0 0 0-.746.144 4.326 4.326 0 0 0-.53.241v8.452a5.42 5.42 0 0 1-.771.145c-.337.048-.69.072-1.059.072-.353 0-.674-.024-.963-.072a1.619 1.619 0 0 1-.699-.289 1.502 1.502 0 0 1-.457-.578c-.097-.257-.145-.586-.145-.987v-7.273c0-.433.089-.778.265-1.035.193-.257.45-.498.771-.722.546-.386 1.22-.699 2.022-.94a9.032 9.032 0 0 1 2.553-.361Zm-11.182 12.04a5.42 5.42 0 0 1-.771.145c-.337.048-.69.072-1.059.072-.353 0-.674-.024-.963-.072a1.619 1.619 0 0 1-.699-.289 1.502 1.502 0 0 1-.457-.578c-.097-.257-.145-.586-.145-.987v-7.224c0-.37.064-.683.193-.939.144-.273.345-.514.602-.723.257-.209.57-.393.939-.554a9.28 9.28 0 0 1 2.577-.746c.465-.08.931-.121 1.396-.121.771 0 1.381.153 1.83.458.45.289.675.77.675 1.445 0 .224-.032.449-.097.674a3.128 3.128 0 0 1-.24.578 11.47 11.47 0 0 0-2.071.193c-.338.064-.659.136-.964.216a3.717 3.717 0 0 0-.746.241v8.211Zm-6.091-5.827c0 .995-.152 1.886-.457 2.673a5.348 5.348 0 0 1-1.3 1.95 5.348 5.348 0 0 1-1.975 1.204c-.771.273-1.63.41-2.577.41-.947 0-1.806-.145-2.577-.434a5.888 5.888 0 0 1-1.998-1.228 5.746 5.746 0 0 1-1.276-1.974c-.306-.771-.458-1.638-.458-2.601 0-.947.152-1.806.457-2.577.305-.77.73-1.42 1.277-1.95a5.703 5.703 0 0 1 1.998-1.252c.771-.289 1.63-.434 2.577-.434.947 0 1.806.153 2.577.458.77.289 1.428.706 1.974 1.252.562.53.995 1.18 1.301 1.95.305.771.457 1.622.457 2.553Zm-8.428 0c0 .979.184 1.734.554 2.264.385.513.915.77 1.59.77.673 0 1.187-.265 1.54-.795.37-.529.554-1.276.554-2.239 0-.963-.185-1.702-.554-2.215-.369-.53-.89-.795-1.565-.795-.674 0-1.196.265-1.565.795-.37.513-.554 1.252-.554 2.215Zm-13.442-5.852c0-.818.136-1.517.41-2.095a3.975 3.975 0 0 1 1.155-1.444 4.627 4.627 0 0 1 1.686-.843A8.054 8.054 0 0 1 84.867 97c1.189 0 2.063.16 2.625.482.562.305.843.834.843 1.589 0 .321-.072.61-.217.867a1.705 1.705 0 0 1-.433.578 8.324 8.324 0 0 0-.963-.193 5.854 5.854 0 0 0-1.132-.096c-.69 0-1.228.12-1.613.361-.386.225-.578.626-.578 1.204v.771h3.949c.096.176.184.401.265.674.096.257.144.546.144.867 0 .562-.128.971-.385 1.228-.24.241-.57.361-.987.361h-2.77v7.633a5.42 5.42 0 0 1-.77.145c-.337.048-.69.072-1.06.072-.353 0-.674-.024-.963-.072a1.615 1.615 0 0 1-.698-.289 1.501 1.501 0 0 1-.458-.578c-.096-.257-.144-.586-.144-.987v-9.97Zm-7.076 12.089c-.947 0-1.83-.129-2.649-.385a6.276 6.276 0 0 1-2.119-1.205c-.594-.529-1.067-1.195-1.42-1.998-.338-.803-.506-1.742-.506-2.818 0-1.059.168-1.966.506-2.721.353-.77.81-1.396 1.372-1.878a5.203 5.203 0 0 1 1.927-1.084 6.984 6.984 0 0 1 2.215-.361c.85 0 1.621.129 2.312.386.706.256 1.308.61 1.806 1.059.513.45.907.987 1.18 1.613a4.83 4.83 0 0 1 .433 2.047c0 .546-.152.964-.457 1.252-.305.289-.73.474-1.277.554l-5.947.891c.176.53.537.931 1.083 1.204.546.257 1.172.386 1.878.386.659 0 1.277-.081 1.855-.241.594-.177 1.075-.377 1.444-.602.257.16.474.385.65.674.177.289.265.594.265.915 0 .722-.337 1.26-1.01 1.613a5.352 5.352 0 0 1-1.735.554 12.12 12.12 0 0 1-1.806.145Zm-.674-9.464c-.385 0-.722.064-1.011.193a1.953 1.953 0 0 0-.675.506 2.045 2.045 0 0 0-.409.674c-.08.241-.128.489-.144.746l4.117-.674c-.048-.321-.224-.642-.53-.963-.304-.321-.754-.482-1.348-.482Zm-10.693 8.765c-.224.177-.553.322-.987.434a5.882 5.882 0 0 1-1.469.168c-.626 0-1.172-.08-1.637-.24-.45-.161-.763-.418-.94-.771-.144-.273-.32-.65-.53-1.132a214.57 214.57 0 0 1-.625-1.637 116.7 116.7 0 0 1-.699-1.951c-.24-.69-.473-1.372-.698-2.046a81.818 81.818 0 0 1-.578-1.951 37.821 37.821 0 0 1-.433-1.662c.224-.224.521-.417.89-.577a2.963 2.963 0 0 1 1.253-.265c.562 0 1.02.12 1.372.361.37.225.643.658.82 1.3l.938 3.685c.177.722.346 1.38.506 1.974.16.578.281 1.028.361 1.349h.12c.306-1.188.627-2.505.964-3.95.337-1.444.642-2.865.915-4.262.273-.144.578-.257.915-.337.353-.08.69-.12 1.011-.12.562 0 1.036.12 1.421.361s.578.658.578 1.252c0 .257-.064.634-.193 1.132a25.246 25.246 0 0 1-.457 1.661c-.177.61-.394 1.261-.65 1.951-.241.69-.49 1.364-.747 2.023a43.867 43.867 0 0 1-.77 1.854 21.15 21.15 0 0 1-.65 1.396Zm-15.633-2.287c.273 0 .57-.024.89-.072.338-.065.587-.145.747-.241v-1.927l-1.733.145c-.45.032-.82.128-1.108.289-.29.16-.434.401-.434.722 0 .321.12.586.362.795.257.193.682.289 1.276.289Zm-.193-9.464c.867 0 1.654.089 2.36.265.723.177 1.333.45 1.83.819a3.49 3.49 0 0 1 1.18 1.372c.273.546.41 1.196.41 1.951v5.394c0 .417-.12.762-.362 1.035a3.413 3.413 0 0 1-.818.675c-1.044.626-2.513.939-4.407.939-.851 0-1.622-.08-2.312-.241-.674-.161-1.26-.401-1.758-.722a3.455 3.455 0 0 1-1.132-1.229c-.256-.497-.385-1.075-.385-1.733 0-1.108.33-1.959.988-2.553.658-.594 1.677-.963 3.058-1.108l3.154-.337v-.168c0-.466-.208-.795-.626-.987-.401-.209-.987-.314-1.758-.314-.61 0-1.204.065-1.782.193-.578.129-1.1.289-1.565.482-.209-.145-.385-.361-.53-.65a2.172 2.172 0 0 1-.216-.94c0-.417.096-.746.289-.987.208-.257.521-.473.939-.65a7.188 7.188 0 0 1 1.637-.385 14.471 14.471 0 0 1 1.806-.121Zm-18.548 1.036a5.35 5.35 0 0 1 .818-.265 4.095 4.095 0 0 1 1.156-.169c.675 0 1.236.105 1.686.313.45.193.722.482.819.867.176.658.337 1.276.481 1.854.16.562.313 1.108.458 1.638.144.514.28 1.027.41 1.541.144.514.28 1.052.409 1.613h.12a141.757 141.757 0 0 0 .698-5.418 1273.049 1273.049 0 0 0 .578-5.129 3.793 3.793 0 0 1 1.903-.505c.594 0 1.107.128 1.54.385.434.257.65.69.65 1.3 0 .353-.04.859-.12 1.517-.064.642-.16 1.365-.289 2.167a70.132 70.132 0 0 1-.915 5.057 33.425 33.425 0 0 1-.553 2.192c-.177.642-.346 1.139-.506 1.493-.241.224-.634.409-1.18.553a6.537 6.537 0 0 1-1.686.217c-.754 0-1.396-.096-1.926-.289-.514-.209-.827-.497-.94-.867a50.444 50.444 0 0 1-.674-2.287c-.24-.883-.497-1.855-.77-2.914a124.307 124.307 0 0 1-.698 3.058 79.928 79.928 0 0 1-.65 2.529c-.241.224-.603.409-1.084.553a5.496 5.496 0 0 1-1.59.217c-.722 0-1.38-.096-1.974-.289-.578-.209-.955-.497-1.132-.867-.144-.289-.305-.714-.482-1.276a65.433 65.433 0 0 1-.505-1.95 211.31 211.31 0 0 1-.554-2.384 143.86 143.86 0 0 1-.506-2.553c-.144-.851-.28-1.678-.409-2.48a37.444 37.444 0 0 1-.289-2.24c.225-.208.538-.401.94-.578a3.193 3.193 0 0 1 1.3-.264c.61 0 1.107.136 1.492.409.402.257.65.698.747 1.324.257 1.638.466 3.002.626 4.094.177 1.092.313 1.991.41 2.697.112.69.192 1.228.24 1.613.048.386.097.691.145.915h.12c.145-.642.281-1.236.41-1.782l.385-1.637c.144-.562.289-1.156.433-1.782.145-.642.297-1.373.458-2.191Z"/>
</svg>
