<svg xmlns="http://www.w3.org/2000/svg" width="150" height="150" fill="none">
  <path fill="#62CF96" d="M72.571 40.875a2.923 2.923 0 0 1 2.929-2.917 2.923 2.923 0 0 1 2.929 2.917v26.25a2.923 2.923 0 0 1-2.929 2.917 2.923 2.923 0 0 1-2.929-2.917v-26.25Zm23.429 0a2.923 2.923 0 0 1 2.928-2.917 2.923 2.923 0 0 1 2.929 2.917v26.25a2.923 2.923 0 0 1-2.928 2.917A2.923 2.923 0 0 1 96 67.125v-26.25Zm35.143 0a2.922 2.922 0 0 1 2.928-2.917A2.923 2.923 0 0 1 137 40.875v26.25a2.923 2.923 0 0 1-2.929 2.917 2.922 2.922 0 0 1-2.928-2.917v-26.25Zm-23.429-18.958A2.923 2.923 0 0 1 110.643 19a2.922 2.922 0 0 1 2.928 2.917v64.166A2.922 2.922 0 0 1 110.643 89a2.923 2.923 0 0 1-2.929-2.917V21.917ZM84.286 33.583a2.923 2.923 0 0 1 2.928-2.916 2.923 2.923 0 0 1 2.929 2.916v40.834a2.923 2.923 0 0 1-2.929 2.916 2.923 2.923 0 0 1-2.928-2.916V33.583Zm35.143 0a2.922 2.922 0 0 1 2.928-2.916 2.923 2.923 0 0 1 2.929 2.916v40.834a2.923 2.923 0 0 1-2.929 2.916 2.922 2.922 0 0 1-2.928-2.916V33.583ZM14 40.875a2.923 2.923 0 0 1 2.929-2.917 2.923 2.923 0 0 1 2.928 2.917v26.25a2.923 2.923 0 0 1-2.928 2.917A2.923 2.923 0 0 1 14 67.125v-26.25Zm23.429 0a2.923 2.923 0 0 1 2.928-2.917 2.923 2.923 0 0 1 2.929 2.917v26.25a2.923 2.923 0 0 1-2.929 2.917 2.923 2.923 0 0 1-2.928-2.917v-26.25Z"/>
  <path fill="#62CF96" d="M72.571 40.875a2.923 2.923 0 0 1 2.929-2.917 2.923 2.923 0 0 1 2.929 2.917v26.25a2.923 2.923 0 0 1-2.929 2.917 2.923 2.923 0 0 1-2.929-2.917v-26.25ZM49.143 21.917A2.923 2.923 0 0 1 52.07 19 2.923 2.923 0 0 1 55 21.917v64.166A2.923 2.923 0 0 1 52.071 89a2.923 2.923 0 0 1-2.928-2.917V21.917ZM25.714 33.583a2.923 2.923 0 0 1 2.929-2.916 2.923 2.923 0 0 1 2.928 2.916v40.834a2.923 2.923 0 0 1-2.928 2.916 2.923 2.923 0 0 1-2.929-2.916V33.583Zm35.143 0a2.923 2.923 0 0 1 2.929-2.916 2.923 2.923 0 0 1 2.928 2.916v40.834a2.923 2.923 0 0 1-2.928 2.916 2.923 2.923 0 0 1-2.929-2.916V33.583Z"/>
</svg>
